<mxfile host="app.diagrams.net" modified="2024-04-16T21:43:37.750Z" agent="Mozilla/5.0 (Windows NT 10.0; Win64; x64) AppleWebKit/537.36 (KHTML, like Gecko) Chrome/123.0.0.0 Safari/537.36" etag="Zlz_yP5No0qrUTuO0s9J" version="24.2.5" type="device">
  <diagram name="Page-1" id="74e2e168-ea6b-b213-b513-2b3c1d86103e">
    <mxGraphModel dx="1434" dy="738" grid="1" gridSize="10" guides="1" tooltips="1" connect="1" arrows="1" fold="1" page="1" pageScale="1" pageWidth="1100" pageHeight="850" background="none" math="0" shadow="0">
      <root>
        <mxCell id="0" />
        <mxCell id="1" parent="0" />
        <mxCell id="77e6c97f196da883-1" value="Real Estate Dashboard Creation" style="swimlane;html=1;childLayout=stackLayout;startSize=20;rounded=0;shadow=0;labelBackgroundColor=none;strokeWidth=1;fontFamily=Verdana;fontSize=8;align=center;" parent="1" vertex="1">
          <mxGeometry x="140" y="50" width="800" height="750" as="geometry" />
        </mxCell>
        <mxCell id="77e6c97f196da883-2" value="Identify Data&lt;div&gt;- API&lt;/div&gt;&lt;div&gt;- csv&lt;/div&gt;" style="swimlane;html=1;startSize=50;strokeColor=#4D4D4D;fillColor=#f5f5f5;fontColor=#333333;shadow=0;glass=0;swimlaneLine=1;swimlaneFillColor=#000000;" parent="77e6c97f196da883-1" vertex="1">
          <mxGeometry y="20" width="160" height="730" as="geometry" />
        </mxCell>
        <mxCell id="ErJcMaJluP-63S9oXfRx-1" value="Listing addresses and property information" style="rounded=1;whiteSpace=wrap;html=1;fillColor=#d5e8d4;strokeColor=#82b366;" parent="77e6c97f196da883-2" vertex="1">
          <mxGeometry x="20" y="96" width="120" height="60" as="geometry" />
        </mxCell>
        <mxCell id="ErJcMaJluP-63S9oXfRx-24" value="" style="edgeStyle=orthogonalEdgeStyle;rounded=0;orthogonalLoop=1;jettySize=auto;html=1;strokeColor=#FFFFFF;strokeWidth=3;" parent="77e6c97f196da883-2" source="ErJcMaJluP-63S9oXfRx-3" target="ErJcMaJluP-63S9oXfRx-2" edge="1">
          <mxGeometry relative="1" as="geometry" />
        </mxCell>
        <mxCell id="ErJcMaJluP-63S9oXfRx-3" value="Grocery Stores" style="rounded=1;whiteSpace=wrap;html=1;fillColor=#f8cecc;strokeColor=#b85450;" parent="77e6c97f196da883-2" vertex="1">
          <mxGeometry x="20" y="288" width="120" height="60" as="geometry" />
        </mxCell>
        <mxCell id="ErJcMaJluP-63S9oXfRx-25" value="" style="edgeStyle=orthogonalEdgeStyle;rounded=0;orthogonalLoop=1;jettySize=auto;html=1;strokeColor=#FFFFFF;strokeWidth=3;" parent="77e6c97f196da883-2" source="ErJcMaJluP-63S9oXfRx-4" target="ErJcMaJluP-63S9oXfRx-5" edge="1">
          <mxGeometry relative="1" as="geometry" />
        </mxCell>
        <mxCell id="ErJcMaJluP-63S9oXfRx-4" value="Restaurants" style="rounded=1;whiteSpace=wrap;html=1;fillColor=#f8cecc;strokeColor=#b85450;" parent="77e6c97f196da883-2" vertex="1">
          <mxGeometry x="20" y="446" width="120" height="60" as="geometry" />
        </mxCell>
        <mxCell id="ErJcMaJluP-63S9oXfRx-26" value="" style="edgeStyle=orthogonalEdgeStyle;rounded=0;orthogonalLoop=1;jettySize=auto;html=1;strokeColor=#FFFFFF;strokeWidth=3;" parent="77e6c97f196da883-2" source="ErJcMaJluP-63S9oXfRx-5" target="ErJcMaJluP-63S9oXfRx-8" edge="1">
          <mxGeometry relative="1" as="geometry" />
        </mxCell>
        <mxCell id="ErJcMaJluP-63S9oXfRx-5" value="Banks" style="rounded=1;whiteSpace=wrap;html=1;fillColor=#f8cecc;strokeColor=#b85450;" parent="77e6c97f196da883-2" vertex="1">
          <mxGeometry x="20" y="548" width="120" height="60" as="geometry" />
        </mxCell>
        <mxCell id="ErJcMaJluP-63S9oXfRx-23" value="" style="edgeStyle=orthogonalEdgeStyle;rounded=0;orthogonalLoop=1;jettySize=auto;html=1;strokeColor=#FFFFFF;strokeWidth=3;" parent="77e6c97f196da883-2" target="ErJcMaJluP-63S9oXfRx-7" edge="1">
          <mxGeometry relative="1" as="geometry">
            <mxPoint x="80" y="156" as="sourcePoint" />
          </mxGeometry>
        </mxCell>
        <mxCell id="ErJcMaJluP-63S9oXfRx-7" value="Public Transport" style="rounded=1;whiteSpace=wrap;html=1;fillColor=#d5e8d4;strokeColor=#82b366;" parent="77e6c97f196da883-2" vertex="1">
          <mxGeometry x="20" y="228" width="120" height="60" as="geometry" />
        </mxCell>
        <mxCell id="ErJcMaJluP-63S9oXfRx-8" value="Average weather" style="rounded=1;whiteSpace=wrap;html=1;fillColor=#f8cecc;strokeColor=#b85450;" parent="77e6c97f196da883-2" vertex="1">
          <mxGeometry x="20" y="628" width="120" height="60" as="geometry" />
        </mxCell>
        <mxCell id="ErJcMaJluP-63S9oXfRx-2" value="Schools" style="rounded=1;whiteSpace=wrap;html=1;fillColor=#d5e8d4;strokeColor=#82b366;" parent="77e6c97f196da883-2" vertex="1">
          <mxGeometry x="20" y="386" width="120" height="60" as="geometry" />
        </mxCell>
        <mxCell id="77e6c97f196da883-3" value="Transform and Load&lt;div&gt;- MongDB&lt;/div&gt;" style="swimlane;html=1;startSize=50;strokeColor=#4D4D4D;swimlaneFillColor=#000000;fillColor=#f5f5f5;fontColor=#333333;" parent="77e6c97f196da883-1" vertex="1">
          <mxGeometry x="160" y="20" width="160" height="730" as="geometry" />
        </mxCell>
        <mxCell id="ErJcMaJluP-63S9oXfRx-64" value="" style="edgeStyle=orthogonalEdgeStyle;rounded=0;orthogonalLoop=1;jettySize=auto;html=1;strokeColor=#FFFFFF;strokeWidth=3;entryX=0.5;entryY=0;entryDx=0;entryDy=0;" parent="77e6c97f196da883-3" source="ErJcMaJluP-63S9oXfRx-9" target="yPaGZtGksYXNtpAY-6iE-1" edge="1">
          <mxGeometry relative="1" as="geometry" />
        </mxCell>
        <mxCell id="ErJcMaJluP-63S9oXfRx-9" value="Determine required structure for each table and distribute work (cleanup before data loadng)" style="rounded=1;whiteSpace=wrap;html=1;" parent="77e6c97f196da883-3" vertex="1">
          <mxGeometry x="20" y="126" width="120" height="100" as="geometry" />
        </mxCell>
        <mxCell id="ErJcMaJluP-63S9oXfRx-65" value="" style="edgeStyle=orthogonalEdgeStyle;rounded=0;orthogonalLoop=1;jettySize=auto;html=1;strokeColor=#FFFFFF;strokeWidth=3;" parent="77e6c97f196da883-3" source="ErJcMaJluP-63S9oXfRx-11" target="ErJcMaJluP-63S9oXfRx-12" edge="1">
          <mxGeometry relative="1" as="geometry" />
        </mxCell>
        <mxCell id="ErJcMaJluP-63S9oXfRx-11" value="Combine similar information types into 1 table; fill in as NAs for minor differences" style="rounded=1;whiteSpace=wrap;html=1;" parent="77e6c97f196da883-3" vertex="1">
          <mxGeometry x="20" y="416" width="120" height="85" as="geometry" />
        </mxCell>
        <mxCell id="ErJcMaJluP-63S9oXfRx-12" value="Update all tables to include LAT/LON info and new column for grouping by province/cities" style="rounded=1;whiteSpace=wrap;html=1;" parent="77e6c97f196da883-3" vertex="1">
          <mxGeometry x="20" y="556" width="120" height="100" as="geometry" />
        </mxCell>
        <mxCell id="yPaGZtGksYXNtpAY-6iE-4" value="" style="edgeStyle=orthogonalEdgeStyle;rounded=0;orthogonalLoop=1;jettySize=auto;html=1;strokeColor=#FFFFFF;strokeWidth=3;" edge="1" parent="77e6c97f196da883-3" source="yPaGZtGksYXNtpAY-6iE-1" target="ErJcMaJluP-63S9oXfRx-11">
          <mxGeometry relative="1" as="geometry" />
        </mxCell>
        <mxCell id="yPaGZtGksYXNtpAY-6iE-1" value="Load data and create new column for information type" style="rounded=1;whiteSpace=wrap;html=1;" vertex="1" parent="77e6c97f196da883-3">
          <mxGeometry x="20" y="266" width="120" height="60" as="geometry" />
        </mxCell>
        <mxCell id="77e6c97f196da883-4" value="Mapping and Overlays&lt;div&gt;- HTML and CSS&lt;/div&gt;&lt;div&gt;-&amp;nbsp;&lt;span style=&quot;background-color: initial;&quot;&gt;JavaScript&lt;/span&gt;&lt;/div&gt;" style="swimlane;html=1;startSize=50;strokeColor=#4D4D4D;swimlaneFillColor=#000000;fillColor=#f5f5f5;fontColor=#333333;" parent="77e6c97f196da883-1" vertex="1">
          <mxGeometry x="320" y="20" width="160" height="730" as="geometry" />
        </mxCell>
        <mxCell id="ErJcMaJluP-63S9oXfRx-69" value="" style="edgeStyle=orthogonalEdgeStyle;rounded=0;orthogonalLoop=1;jettySize=auto;html=1;strokeColor=#FFFFFF;strokeWidth=3;" parent="77e6c97f196da883-4" source="ErJcMaJluP-63S9oXfRx-13" target="ErJcMaJluP-63S9oXfRx-14" edge="1">
          <mxGeometry relative="1" as="geometry" />
        </mxCell>
        <mxCell id="ErJcMaJluP-63S9oXfRx-13" value="Street view base layer" style="rounded=1;whiteSpace=wrap;html=1;" parent="77e6c97f196da883-4" vertex="1">
          <mxGeometry x="20" y="206" width="120" height="60" as="geometry" />
        </mxCell>
        <mxCell id="ErJcMaJluP-63S9oXfRx-70" value="" style="edgeStyle=orthogonalEdgeStyle;rounded=0;orthogonalLoop=1;jettySize=auto;html=1;strokeColor=#FFFFFF;strokeWidth=3;" parent="77e6c97f196da883-4" source="ErJcMaJluP-63S9oXfRx-14" target="ErJcMaJluP-63S9oXfRx-15" edge="1">
          <mxGeometry relative="1" as="geometry" />
        </mxCell>
        <mxCell id="ErJcMaJluP-63S9oXfRx-14" value="POIs overlays with dropdown selection" style="rounded=1;whiteSpace=wrap;html=1;" parent="77e6c97f196da883-4" vertex="1">
          <mxGeometry x="20" y="331" width="120" height="60" as="geometry" />
        </mxCell>
        <mxCell id="ErJcMaJluP-63S9oXfRx-71" value="" style="edgeStyle=orthogonalEdgeStyle;rounded=0;orthogonalLoop=1;jettySize=auto;html=1;strokeColor=#FFFFFF;strokeWidth=3;" parent="77e6c97f196da883-4" source="ErJcMaJluP-63S9oXfRx-15" target="ErJcMaJluP-63S9oXfRx-16" edge="1">
          <mxGeometry relative="1" as="geometry" />
        </mxCell>
        <mxCell id="ErJcMaJluP-63S9oXfRx-15" value="Popup information containing property information only" style="rounded=1;whiteSpace=wrap;html=1;" parent="77e6c97f196da883-4" vertex="1">
          <mxGeometry x="20" y="456" width="120" height="60" as="geometry" />
        </mxCell>
        <mxCell id="ErJcMaJluP-63S9oXfRx-16" value="Other POIs popups will only have name and address" style="rounded=1;whiteSpace=wrap;html=1;" parent="77e6c97f196da883-4" vertex="1">
          <mxGeometry x="20" y="586" width="120" height="60" as="geometry" />
        </mxCell>
        <mxCell id="ErJcMaJluP-63S9oXfRx-68" value="" style="edgeStyle=orthogonalEdgeStyle;rounded=0;orthogonalLoop=1;jettySize=auto;html=1;strokeColor=#FFFFFF;strokeWidth=3;" parent="77e6c97f196da883-4" source="ErJcMaJluP-63S9oXfRx-18" target="ErJcMaJluP-63S9oXfRx-13" edge="1">
          <mxGeometry relative="1" as="geometry" />
        </mxCell>
        <mxCell id="ErJcMaJluP-63S9oXfRx-18" value="Create basic HTML and CSS for testing" style="rounded=1;whiteSpace=wrap;html=1;" parent="77e6c97f196da883-4" vertex="1">
          <mxGeometry x="20" y="86" width="120" height="60" as="geometry" />
        </mxCell>
        <mxCell id="77e6c97f196da883-5" value="Search and Filter&lt;div&gt;&lt;div&gt;- HTML and CSS&lt;/div&gt;&lt;div&gt;-&amp;nbsp;&lt;span style=&quot;background-color: initial;&quot;&gt;JavaScript&lt;/span&gt;&lt;/div&gt;&lt;/div&gt;" style="swimlane;html=1;startSize=50;strokeColor=#4D4D4D;swimlaneFillColor=#000000;fillColor=#f5f5f5;fontColor=#333333;" parent="77e6c97f196da883-1" vertex="1">
          <mxGeometry x="480" y="20" width="160" height="730" as="geometry" />
        </mxCell>
        <mxCell id="ErJcMaJluP-63S9oXfRx-73" value="" style="edgeStyle=orthogonalEdgeStyle;rounded=0;orthogonalLoop=1;jettySize=auto;html=1;strokeColor=#FFFFFF;strokeWidth=3;" parent="77e6c97f196da883-5" source="ErJcMaJluP-63S9oXfRx-19" target="ErJcMaJluP-63S9oXfRx-20" edge="1">
          <mxGeometry relative="1" as="geometry" />
        </mxCell>
        <mxCell id="ErJcMaJluP-63S9oXfRx-19" value="Update HTML for better UX" style="rounded=1;whiteSpace=wrap;html=1;" parent="77e6c97f196da883-5" vertex="1">
          <mxGeometry x="20" y="146" width="120" height="60" as="geometry" />
        </mxCell>
        <mxCell id="ErJcMaJluP-63S9oXfRx-74" value="" style="edgeStyle=orthogonalEdgeStyle;rounded=0;orthogonalLoop=1;jettySize=auto;html=1;strokeColor=#FFFFFF;strokeWidth=3;" parent="77e6c97f196da883-5" source="ErJcMaJluP-63S9oXfRx-20" target="ErJcMaJluP-63S9oXfRx-21" edge="1">
          <mxGeometry relative="1" as="geometry" />
        </mxCell>
        <mxCell id="ErJcMaJluP-63S9oXfRx-20" value="Add search function and filtering" style="rounded=1;whiteSpace=wrap;html=1;" parent="77e6c97f196da883-5" vertex="1">
          <mxGeometry x="20" y="316" width="120" height="60" as="geometry" />
        </mxCell>
        <mxCell id="ErJcMaJluP-63S9oXfRx-21" value="Update JavaScript to apply filters depending on User inputs" style="rounded=1;whiteSpace=wrap;html=1;" parent="77e6c97f196da883-5" vertex="1">
          <mxGeometry x="20" y="486" width="120" height="85" as="geometry" />
        </mxCell>
        <mxCell id="77e6c97f196da883-6" value="Testing&lt;div&gt;&lt;div&gt;- HTML and CSS&lt;/div&gt;&lt;div&gt;-&amp;nbsp;&lt;span style=&quot;background-color: initial;&quot;&gt;JavaScript&lt;/span&gt;&lt;/div&gt;&lt;/div&gt;" style="swimlane;html=1;startSize=50;strokeColor=#4D4D4D;swimlaneFillColor=#000000;fillColor=#f5f5f5;fontColor=#333333;" parent="77e6c97f196da883-1" vertex="1">
          <mxGeometry x="640" y="20" width="160" height="730" as="geometry" />
        </mxCell>
        <mxCell id="ErJcMaJluP-63S9oXfRx-22" value="Ensure information is accurate and dashboard is working as intended" style="rounded=1;whiteSpace=wrap;html=1;" parent="77e6c97f196da883-6" vertex="1">
          <mxGeometry x="20" y="296" width="120" height="100" as="geometry" />
        </mxCell>
        <mxCell id="ErJcMaJluP-63S9oXfRx-47" style="edgeStyle=orthogonalEdgeStyle;rounded=0;orthogonalLoop=1;jettySize=auto;html=1;exitX=1;exitY=0.5;exitDx=0;exitDy=0;fillColor=#d5e8d4;strokeColor=#82b366;strokeWidth=3;entryX=0.003;entryY=0.297;entryDx=0;entryDy=0;entryPerimeter=0;" parent="77e6c97f196da883-1" source="ErJcMaJluP-63S9oXfRx-1" target="ErJcMaJluP-63S9oXfRx-9" edge="1">
          <mxGeometry relative="1" as="geometry">
            <Array as="points">
              <mxPoint x="160" y="146" />
              <mxPoint x="160" y="176" />
              <mxPoint x="180" y="176" />
            </Array>
            <mxPoint x="180" y="166" as="targetPoint" />
          </mxGeometry>
        </mxCell>
        <mxCell id="ErJcMaJluP-63S9oXfRx-51" style="edgeStyle=orthogonalEdgeStyle;rounded=0;orthogonalLoop=1;jettySize=auto;html=1;exitX=1;exitY=0.5;exitDx=0;exitDy=0;entryX=0.003;entryY=0.551;entryDx=0;entryDy=0;fillColor=#d5e8d4;strokeColor=#82b366;strokeWidth=3;entryPerimeter=0;" parent="77e6c97f196da883-1" source="ErJcMaJluP-63S9oXfRx-7" target="ErJcMaJluP-63S9oXfRx-9" edge="1">
          <mxGeometry relative="1" as="geometry" />
        </mxCell>
        <mxCell id="ErJcMaJluP-63S9oXfRx-67" style="edgeStyle=orthogonalEdgeStyle;rounded=0;orthogonalLoop=1;jettySize=auto;html=1;exitX=1;exitY=0.5;exitDx=0;exitDy=0;entryX=0.002;entryY=0.644;entryDx=0;entryDy=0;strokeColor=#FFFFFF;strokeWidth=3;entryPerimeter=0;" parent="77e6c97f196da883-1" source="ErJcMaJluP-63S9oXfRx-12" target="ErJcMaJluP-63S9oXfRx-18" edge="1">
          <mxGeometry relative="1" as="geometry" />
        </mxCell>
        <mxCell id="ErJcMaJluP-63S9oXfRx-72" style="edgeStyle=orthogonalEdgeStyle;rounded=0;orthogonalLoop=1;jettySize=auto;html=1;exitX=1;exitY=0.5;exitDx=0;exitDy=0;entryX=0;entryY=0.5;entryDx=0;entryDy=0;strokeColor=#FFFFFF;strokeWidth=3;" parent="77e6c97f196da883-1" source="ErJcMaJluP-63S9oXfRx-16" target="ErJcMaJluP-63S9oXfRx-19" edge="1">
          <mxGeometry relative="1" as="geometry" />
        </mxCell>
        <mxCell id="ErJcMaJluP-63S9oXfRx-75" style="edgeStyle=orthogonalEdgeStyle;rounded=0;orthogonalLoop=1;jettySize=auto;html=1;exitX=1;exitY=0.5;exitDx=0;exitDy=0;entryX=0;entryY=0.5;entryDx=0;entryDy=0;strokeColor=#FFFFFF;strokeWidth=3;" parent="77e6c97f196da883-1" source="ErJcMaJluP-63S9oXfRx-21" target="ErJcMaJluP-63S9oXfRx-22" edge="1">
          <mxGeometry relative="1" as="geometry" />
        </mxCell>
        <mxCell id="ErJcMaJluP-63S9oXfRx-78" style="edgeStyle=orthogonalEdgeStyle;rounded=0;orthogonalLoop=1;jettySize=auto;html=1;exitX=1;exitY=0.5;exitDx=0;exitDy=0;entryX=0.001;entryY=0.797;entryDx=0;entryDy=0;fillColor=#d5e8d4;strokeColor=#82b366;strokeWidth=3;entryPerimeter=0;" parent="77e6c97f196da883-1" source="ErJcMaJluP-63S9oXfRx-2" target="ErJcMaJluP-63S9oXfRx-9" edge="1">
          <mxGeometry relative="1" as="geometry" />
        </mxCell>
        <mxCell id="yPaGZtGksYXNtpAY-6iE-5" value="" style="edgeStyle=orthogonalEdgeStyle;rounded=0;orthogonalLoop=1;jettySize=auto;html=1;fillColor=#fff2cc;strokeColor=#d6b656;strokeWidth=3;entryX=-0.004;entryY=0.321;entryDx=0;entryDy=0;entryPerimeter=0;" edge="1" parent="77e6c97f196da883-1" source="ErJcMaJluP-63S9oXfRx-9" target="ErJcMaJluP-63S9oXfRx-18">
          <mxGeometry relative="1" as="geometry">
            <Array as="points">
              <mxPoint x="310" y="196" />
              <mxPoint x="310" y="126" />
              <mxPoint x="339" y="126" />
            </Array>
          </mxGeometry>
        </mxCell>
      </root>
    </mxGraphModel>
  </diagram>
</mxfile>
